<svg width="35" height="35" viewBox="0 0 35 35" fill="none" xmlns="http://www.w3.org/2000/svg">
<path d="M17.5002 20.7791C19.3124 20.7791 20.7815 19.31 20.7815 17.4978C20.7815 15.6856 19.3124 14.2166 17.5002 14.2166C15.6881 14.2166 14.219 15.6856 14.219 17.4978C14.219 19.31 15.6881 20.7791 17.5002 20.7791Z" fill="white"/>
<path d="M28.4377 20.7791C30.2499 20.7791 31.719 19.31 31.719 17.4978C31.719 15.6856 30.2499 14.2166 28.4377 14.2166C26.6256 14.2166 25.1565 15.6856 25.1565 17.4978C25.1565 19.31 26.6256 20.7791 28.4377 20.7791Z" fill="white"/>
<path d="M6.56274 20.7791C8.37493 20.7791 9.84399 19.31 9.84399 17.4978C9.84399 15.6856 8.37493 14.2166 6.56274 14.2166C4.75056 14.2166 3.28149 15.6856 3.28149 17.4978C3.28149 19.31 4.75056 20.7791 6.56274 20.7791Z" fill="white"/>
</svg>
