<svg width="35" height="35" viewBox="0 0 35 35" fill="none" xmlns="http://www.w3.org/2000/svg">
<path d="M31.8512 8.25604V2.41124L34.701 2.29899V0H25.7783V2.41117H28.7402C28.7402 2.41117 29.2412 4.71981 28.7402 7.48282C27.4559 14.5654 19.1234 22.6914 10.1566 24.944C5.39924 26.1391 1.80121 25.8612 1.80121 25.8612C1.1103 25.677 0.390613 26.0314 0.11533 26.6904C-0.159406 27.3494 0.0961895 28.1226 0.467791 29.0061C0.467791 29.0061 2.14533 33.6863 10.7239 34.6201C22.0234 35.8496 31.1851 30.9245 34.3345 20.0043C36.2785 13.264 33.5072 8.25604 31.8512 8.25604ZM21.0228 28.0793C16.8307 30.4 12.3181 31.379 8.8481 31.4135L8.83539 30.1075C12.0745 30.0807 16.4158 29.1431 20.3898 26.9372C24.369 24.7293 27.9805 21.2797 29.8983 16.1985L31.119 16.6587C29.0774 22.0745 25.2097 25.7604 21.0228 28.0793Z" fill="#FBE416"/>
</svg>
