<svg width="40" height="40" viewBox="0 0 40 40" fill="none" xmlns="http://www.w3.org/2000/svg">
<circle cx="20" cy="20" r="20" fill="#FC3B50"/>
<path d="M15.6408 17.5393C15.97 17.21 16.3353 16.9385 16.7238 16.724C18.8892 15.5307 21.6659 16.1652 23.058 18.2759L21.3734 19.9597C20.8904 18.8579 19.691 18.2309 18.4977 18.4979C18.0484 18.5984 17.6216 18.8227 17.2729 19.1714L14.0446 22.4011C13.0643 23.3815 13.0643 24.9761 14.0446 25.9564C15.025 26.9367 16.6196 26.9367 17.5999 25.9564L18.5952 24.9611C19.5005 25.3203 20.4711 25.4636 21.4296 25.3923L19.2327 27.5892C17.3494 29.4726 14.2959 29.4726 12.4125 27.5892C10.5292 25.7059 10.5292 22.6524 12.4125 20.769L15.6408 17.5393V17.5393ZM20.7681 12.412L18.5712 14.6089C19.529 14.5369 20.5003 14.6809 21.4056 15.0394L22.4002 14.0448C23.3805 13.0645 24.9751 13.0645 25.9555 14.0448C26.9358 15.0251 26.9358 16.6198 25.9555 17.6001L22.7265 20.829C21.7432 21.8124 20.1463 21.8041 19.1712 20.829C18.944 20.6018 18.7482 20.319 18.626 20.0407L16.9413 21.7246C17.1184 21.9931 17.3021 22.2249 17.5384 22.4612C18.1474 23.0702 18.923 23.524 19.8155 23.7392C20.9721 24.0175 22.2112 23.8637 23.2755 23.2765C23.664 23.0619 24.0293 22.7904 24.3586 22.4612L27.5868 19.2322C29.4709 17.3488 29.4709 14.2953 27.5876 12.412C25.7042 10.5293 22.6515 10.5293 20.7681 12.412V12.412Z" fill="white"/>
</svg>
