<svg width="131" height="48" viewBox="0 0 131 48" fill="none" xmlns="http://www.w3.org/2000/svg">
<path d="M35.7393 18.8434V14.626L37.7852 14.545V12.8861H31.3792V14.6259H33.5057C33.5057 14.6259 33.8654 16.2918 33.5057 18.2855C32.5836 23.396 26.6013 29.2595 20.1637 30.8849C16.7481 31.7472 14.1649 31.5467 14.1649 31.5467C13.6689 31.4138 13.1522 31.6695 12.9545 32.145C12.7573 32.6205 12.9408 33.1785 13.2076 33.8159C13.2076 33.8159 14.412 37.193 20.5709 37.8668C28.6834 38.7539 35.261 35.2002 37.5221 27.3205C38.9178 22.4569 36.9281 18.8434 35.7393 18.8434ZM27.965 33.1472C24.9553 34.8217 21.7155 35.5281 19.2242 35.553L19.2151 34.6106C21.5406 34.5913 24.6574 33.9148 27.5106 32.323C30.3674 30.7299 32.9602 28.2408 34.3372 24.5744L35.2135 24.9065C33.7478 28.8143 30.971 31.4739 27.965 33.1472Z" fill="#00EA33"/>
<path d="M32.8675 15.9573V11.7399L34.9135 11.6589V10H28.5075V11.7398H30.634C30.634 11.7398 30.9937 13.4057 30.634 15.3994C29.7119 20.5099 23.7296 26.3734 17.2919 27.9987C13.8764 28.8611 11.2932 28.6605 11.2932 28.6605C10.7971 28.5277 10.2804 28.7834 10.0828 29.2589C9.88555 29.7344 10.0691 30.2923 10.3358 30.9298C10.3358 30.9298 11.5402 34.3069 17.6992 34.9807C25.8117 35.8678 32.3893 32.3141 34.6504 24.4344C36.0461 19.5708 34.0564 15.9573 32.8675 15.9573ZM25.0933 30.2611C22.0836 31.9356 18.8438 32.642 16.3525 32.6669L16.3433 31.7245C18.6689 31.7052 21.7857 31.0287 24.6388 29.4369C27.4957 27.8438 30.0885 25.3547 31.4655 21.6883L32.3418 22.0204C30.8761 25.9282 28.0993 28.5878 25.0933 30.2611Z" fill="#FBE416"/>
<path d="M34.3034 17.4003V13.1829L36.3494 13.1019V11.443H29.9434V13.1828H32.0698C32.0698 13.1828 32.4295 14.8486 32.0698 16.8423C31.1477 21.9529 25.1655 27.8164 18.7278 29.4417C15.3122 30.3041 12.729 30.1035 12.729 30.1035C12.233 29.9707 11.7163 30.2264 11.5187 30.7019C11.3214 31.1774 11.5049 31.7353 11.7717 32.3728C11.7717 32.3728 12.9761 35.7499 19.1351 36.4237C27.2475 37.3108 33.8251 33.7571 36.0862 25.8774C37.482 21.0138 35.4923 17.4003 34.3034 17.4003ZM26.5291 31.7041C23.5194 33.3786 20.2796 34.085 17.7883 34.1099L17.7792 33.1675C20.1047 33.1482 23.2215 32.4717 26.0747 30.8799C28.9316 29.2868 31.5244 26.7977 32.9013 23.1313L33.7777 23.4633C32.3119 27.3712 29.5351 30.0308 26.5291 31.7041Z" fill="black"/>
<path d="M57.6777 32H54.6015L48.6132 22.1768V32H45.537V17.0703H48.6132L54.6118 26.9141V17.0703H57.6777V32ZM66.8139 30.8721C66.0825 31.7607 65.0707 32.2051 63.7787 32.2051C62.5893 32.2051 61.6801 31.8633 61.0512 31.1797C60.4291 30.4961 60.1113 29.4946 60.0976 28.1753V20.9053H63.061V28.0728C63.061 29.228 63.5873 29.8057 64.6401 29.8057C65.645 29.8057 66.3354 29.457 66.7114 28.7598V20.9053H69.685V32H66.8959L66.8139 30.8721ZM75.9501 27.5498L74.8837 28.6162V32H71.9203V16.25H74.8837V24.9761L75.4579 24.2378L78.2983 20.9053H81.8564L77.8471 25.5298L82.205 32H78.8007L75.9501 27.5498ZM95.4736 32H92.3974L86.4091 22.1768V32H83.3329V17.0703H86.4091L92.4077 26.9141V17.0703H95.4736V32ZM104.61 30.8721C103.878 31.7607 102.867 32.2051 101.575 32.2051C100.385 32.2051 99.476 31.8633 98.8471 31.1797C98.225 30.4961 97.9072 29.4946 97.8935 28.1753V20.9053H100.857V28.0728C100.857 29.228 101.383 29.8057 102.436 29.8057C103.441 29.8057 104.131 29.457 104.507 28.7598V20.9053H107.481V32H104.692L104.61 30.8721ZM113.746 27.5498L112.68 28.6162V32H109.716V16.25H112.68V24.9761L113.254 24.2378L116.094 20.9053H119.652L115.643 25.5298L120.001 32H116.597L113.746 27.5498Z" fill="black"/>
</svg>
