<svg width="131" height="48" viewBox="0 0 131 48" fill="none" xmlns="http://www.w3.org/2000/svg">
<path d="M35.7392 18.8435V14.6261L37.7852 14.5451V12.8862H31.3792V14.6261H33.5057C33.5057 14.6261 33.8654 16.2919 33.5057 18.2856C32.5836 23.3961 26.6013 29.2596 20.1636 30.885C16.7481 31.7473 14.1649 31.5468 14.1649 31.5468C13.6688 31.4139 13.1521 31.6696 12.9545 32.1451C12.7573 32.6207 12.9408 33.1786 13.2076 33.816C13.2076 33.816 14.4119 37.1932 20.5709 37.8669C28.6834 38.7541 35.261 35.2003 37.5221 27.3206C38.9178 22.4571 36.9281 18.8435 35.7392 18.8435ZM27.965 33.1473C24.9553 34.8218 21.7155 35.5283 19.2242 35.5531L19.2151 34.6108C21.5406 34.5914 24.6574 33.9149 27.5105 32.3232C30.3674 30.73 32.9602 28.241 34.3372 24.5745L35.2135 24.9066C33.7478 28.8144 30.971 31.4741 27.965 33.1473Z" fill="#00EA33"/>
<path d="M32.8675 15.9573V11.7399L34.9135 11.6589V10H28.5075V11.7398H30.634C30.634 11.7398 30.9937 13.4057 30.634 15.3994C29.7119 20.5099 23.7296 26.3734 17.2919 27.9987C13.8764 28.8611 11.2932 28.6605 11.2932 28.6605C10.7971 28.5277 10.2804 28.7834 10.0828 29.2589C9.88555 29.7344 10.0691 30.2923 10.3358 30.9298C10.3358 30.9298 11.5402 34.3069 17.6992 34.9807C25.8117 35.8678 32.3893 32.3141 34.6504 24.4344C36.0461 19.5708 34.0564 15.9573 32.8675 15.9573ZM25.0933 30.2611C22.0836 31.9356 18.8438 32.642 16.3525 32.6669L16.3433 31.7245C18.6689 31.7052 21.7857 31.0287 24.6388 29.4369C27.4957 27.8438 30.0885 25.3547 31.4655 21.6883L32.3418 22.0204C30.8761 25.9282 28.0993 28.5878 25.0933 30.2611Z" fill="#FBE416"/>
<path d="M34.3034 17.4004V13.183L36.3494 13.102V11.4431H29.9434V13.1829H32.0699C32.0699 13.1829 32.4296 14.8488 32.0699 16.8425C31.1478 21.953 25.1655 27.8165 18.7279 29.4419C15.3123 30.3042 12.7291 30.1037 12.7291 30.1037C12.2331 29.9708 11.7164 30.2265 11.5187 30.702C11.3215 31.1775 11.505 31.7355 11.7718 32.3729C11.7718 32.3729 12.9761 35.75 19.1351 36.4238C27.2476 37.311 33.8252 33.7572 36.0863 25.8775C37.482 21.014 35.4923 17.4004 34.3034 17.4004ZM26.5292 31.7042C23.5195 33.3787 20.2797 34.0851 17.7884 34.11L17.7793 33.1676C20.1048 33.1483 23.2216 32.4718 26.0748 30.8801C28.9316 29.2869 31.5244 26.7978 32.9014 23.1314L33.7777 23.4635C32.312 27.3713 29.5352 30.031 26.5292 31.7042Z" fill="white"/>
<path d="M57.6777 32H54.6016L48.6133 22.1768V32H45.5371V17.0703H48.6133L54.6118 26.9141V17.0703H57.6777V32ZM66.814 30.8721C66.0825 31.7607 65.0708 32.2051 63.7788 32.2051C62.5894 32.2051 61.6802 31.8633 61.0513 31.1797C60.4292 30.4961 60.1113 29.4946 60.0977 28.1753V20.9053H63.061V28.0728C63.061 29.228 63.5874 29.8057 64.6401 29.8057C65.645 29.8057 66.3354 29.457 66.7114 28.7598V20.9053H69.6851V32H66.896L66.814 30.8721ZM75.9502 27.5498L74.8838 28.6162V32H71.9204V16.25H74.8838V24.9761L75.458 24.2378L78.2983 20.9053H81.8564L77.8472 25.5298L82.2051 32H78.8008L75.9502 27.5498ZM95.4736 32H92.3975L86.4092 22.1768V32H83.333V17.0703H86.4092L92.4077 26.9141V17.0703H95.4736V32ZM104.61 30.8721C103.878 31.7607 102.867 32.2051 101.575 32.2051C100.385 32.2051 99.4761 31.8633 98.8472 31.1797C98.2251 30.4961 97.9072 29.4946 97.8936 28.1753V20.9053H100.857V28.0728C100.857 29.228 101.383 29.8057 102.436 29.8057C103.441 29.8057 104.131 29.457 104.507 28.7598V20.9053H107.481V32H104.692L104.61 30.8721ZM113.746 27.5498L112.68 28.6162V32H109.716V16.25H112.68V24.9761L113.254 24.2378L116.094 20.9053H119.652L115.643 25.5298L120.001 32H116.597L113.746 27.5498Z" fill="white"/>
</svg>
