<svg width="121" height="44" viewBox="0 0 121 44" fill="none" xmlns="http://www.w3.org/2000/svg">
<path d="M32.0623 17.5422V13.9454L33.816 13.8763V12.4615H28.3251V13.9453H30.1478C30.1478 13.9453 30.4561 15.366 30.1478 17.0664C29.3575 21.4249 24.2298 26.4255 18.7118 27.8117C15.7842 28.5471 13.57 28.3761 13.57 28.3761C13.1448 28.2628 12.7019 28.4809 12.5325 28.8864C12.3635 29.292 12.5207 29.7678 12.7494 30.3114C12.7494 30.3114 13.7817 33.1916 19.0609 33.7662C26.0144 34.5228 31.6523 31.492 33.5904 24.7719C34.7868 20.624 33.0813 17.5422 32.0623 17.5422ZM25.3986 29.7411C22.8189 31.1692 20.0419 31.7717 17.9065 31.7929L17.8987 30.9892C19.892 30.9727 22.5635 30.3958 25.0091 29.0382C27.4579 27.6796 29.6803 25.5568 30.8605 22.4299L31.6117 22.713C30.3553 26.0458 27.9752 28.3141 25.3986 29.7411Z" fill="#00EA33"/>
<path d="M29.6007 15.0806V11.4838L31.3544 11.4148V10H25.8636V11.4838H27.6863C27.6863 11.4838 27.9946 12.9045 27.6863 14.6048C26.8959 18.9633 21.7682 23.9639 16.2502 25.3501C13.3226 26.0856 11.1084 25.9146 11.1084 25.9146C10.6833 25.8012 10.2404 26.0193 10.071 26.4248C9.9019 26.8304 10.0592 27.3062 10.2879 27.8499C10.2879 27.8499 11.3202 30.73 16.5993 31.3047C23.5529 32.0613 29.1908 29.0304 31.1289 22.3103C32.3252 18.1624 30.6198 15.0806 29.6007 15.0806ZM22.9371 27.2796C20.3573 28.7077 17.5804 29.3101 15.445 29.3313L15.4372 28.5277C17.4305 28.5112 20.102 27.9342 22.5476 26.5767C24.9963 25.218 27.2187 23.0952 28.399 19.9683L29.1501 20.2515C27.8938 23.5843 25.5137 25.8526 22.9371 27.2796Z" fill="#FBE416"/>
<path d="M30.8315 16.3113V12.7146L32.5852 12.6455V11.2307H27.0943V12.7145H28.917C28.917 12.7145 29.2253 14.1352 28.917 15.8355C28.1267 20.194 22.999 25.1947 17.481 26.5809C14.5534 27.3163 12.3392 27.1453 12.3392 27.1453C11.914 27.0319 11.4712 27.25 11.3017 27.6555C11.1327 28.0611 11.29 28.5369 11.5186 29.0806C11.5186 29.0806 12.551 31.9608 17.8301 32.5354C24.7836 33.292 30.4216 30.2612 32.3597 23.541C33.556 19.3932 31.8506 16.3113 30.8315 16.3113ZM24.1679 28.5103C21.5881 29.9384 18.8111 30.5409 16.6758 30.5621L16.6679 29.7584C18.6612 29.7419 21.3328 29.1649 23.7784 27.8074C26.2271 26.4487 28.4495 24.3259 29.6297 21.199L30.3809 21.4822C29.1246 24.815 26.7444 27.0833 24.1679 28.5103Z" fill="#DADADA"/>
<path d="M87.5 25C87.5 27.4853 91.933 29.5 90 29.5C88.067 29.5 86 27.4853 86 25C86 22.5147 88.067 20.5 90 20.5C91.933 20.5 87.5 22.5147 87.5 25Z" fill="#FBE416"/>
<path d="M95.988 25C95.988 22.5147 91.555 20.5 93.488 20.5C95.421 20.5 97.488 22.5147 97.488 25C97.488 27.4853 95.421 29.5 93.488 29.5C91.555 29.5 95.988 27.4853 95.988 25Z" fill="#00EA33"/>
<path d="M54.729 29.9398H51.9458L46.5278 21.0521V29.9398H43.7446V16.432H46.5278L51.9551 25.3383V16.432H54.729V29.9398ZM62.9951 28.9193C62.3333 29.7233 61.418 30.1254 60.249 30.1254C59.1729 30.1254 58.3503 29.8161 57.7812 29.1976C57.2184 28.5791 56.9308 27.6731 56.9185 26.4794V19.9017H59.5996V26.3866C59.5996 27.4318 60.0758 27.9545 61.0283 27.9545C61.9375 27.9545 62.5622 27.639 62.9023 27.0082V19.9017H65.5928V29.9398H63.0693L62.9951 28.9193ZM71.2612 25.9135L70.2964 26.8783V29.9398H67.6152V15.6898H70.2964V23.5848L70.8159 22.9169L73.3857 19.9017H76.605L72.9775 24.0858L76.9204 29.9398H73.8403L71.2612 25.9135ZM88.1089 18.6864H83.9712V29.9398H81.188V18.6864H77.106V16.432H88.1089V18.6864ZM87.1812 24.828C87.1812 23.8322 87.3729 22.9447 87.7563 22.1654C88.1398 21.3861 88.6903 20.7831 89.4077 20.3563C90.1313 19.9296 90.9694 19.7162 91.9219 19.7162C93.2764 19.7162 94.3804 20.1306 95.2339 20.9594C96.0936 21.7881 96.5729 22.9138 96.6719 24.3363L96.6904 25.0228C96.6904 26.5629 96.2606 27.7998 95.4009 28.7338C94.5412 29.6615 93.3877 30.1254 91.9404 30.1254C90.4932 30.1254 89.3366 29.6615 88.4707 28.7338C87.611 27.806 87.1812 26.5443 87.1812 24.9486V24.828ZM89.8623 25.0228C89.8623 25.9753 90.0417 26.7051 90.4004 27.2123C90.7591 27.7133 91.2725 27.9637 91.9404 27.9637C92.5898 27.9637 93.097 27.7163 93.4619 27.2216C93.8268 26.7206 94.0093 25.9227 94.0093 24.828C94.0093 23.8941 93.8268 23.1705 93.4619 22.6571C93.097 22.1438 92.5837 21.8871 91.9219 21.8871C91.2663 21.8871 90.7591 22.1438 90.4004 22.6571C90.0417 23.1643 89.8623 23.9528 89.8623 25.0228ZM101.988 25.9135L101.023 26.8783V29.9398H98.3418V15.6898H101.023V23.5848L101.542 22.9169L104.112 19.9017H107.332L103.704 24.0858L107.647 29.9398H104.567L101.988 25.9135Z" fill="#DADADA"/>
</svg>
