<svg width="26" height="9" viewBox="0 0 26 9" fill="none" xmlns="http://www.w3.org/2000/svg">
<path d="M24.2505 3.24989H15.2755C15.0128 2.52595 14.5335 1.90047 13.9028 1.45845C13.2721 1.01642 12.5207 0.779297 11.7505 0.779297C10.9804 0.779297 10.2289 1.01642 9.59821 1.45845C8.96754 1.90047 8.48826 2.52595 8.2255 3.24989H1.75049C1.41897 3.24989 1.10103 3.38159 0.866605 3.61601C0.632185 3.85043 0.500488 4.16837 0.500488 4.4999C0.500488 4.83142 0.632185 5.14936 0.866605 5.38378C1.10103 5.6182 1.41897 5.7499 1.75049 5.7499H8.2255C8.48826 6.47384 8.96754 7.09932 9.59821 7.54135C10.2289 7.98337 10.9804 8.22049 11.7505 8.22049C12.5207 8.22049 13.2721 7.98337 13.9028 7.54135C14.5335 7.09932 15.0128 6.47384 15.2755 5.7499H24.2505C24.5821 5.7499 24.9 5.6182 25.1344 5.38378C25.3688 5.14936 25.5005 4.83142 25.5005 4.4999C25.5005 4.16837 25.3688 3.85043 25.1344 3.61601C24.9 3.38159 24.5821 3.24989 24.2505 3.24989ZM11.7505 5.7499C11.5033 5.7499 11.2616 5.67659 11.056 5.53923C10.8505 5.40188 10.6903 5.20666 10.5957 4.97825C10.501 4.74984 10.4763 4.49851 10.5245 4.25603C10.5728 4.01355 10.6918 3.79083 10.8666 3.61601C11.0414 3.44119 11.2642 3.32214 11.5066 3.27391C11.7491 3.22568 12.0005 3.25044 12.2289 3.34504C12.4573 3.43965 12.6525 3.59987 12.7898 3.80543C12.9272 4.01099 13.0005 4.25267 13.0005 4.4999C13.0005 4.83142 12.8688 5.14936 12.6344 5.38378C12.4 5.6182 12.082 5.7499 11.7505 5.7499Z" fill="#F0F0F0"/>
</svg>
