<svg width="30" height="30" viewBox="0 0 30 30" fill="none" xmlns="http://www.w3.org/2000/svg">
<path d="M23.7505 11.25C22.9768 11.2522 22.2228 11.4936 21.5917 11.9412C20.9606 12.3888 20.4834 13.0206 20.2255 13.75H3.75049C3.41897 13.75 3.10103 13.8817 2.86661 14.1161C2.63218 14.3506 2.50049 14.6685 2.50049 15C2.50049 15.3315 2.63218 15.6495 2.86661 15.8839C3.10103 16.1183 3.41897 16.25 3.75049 16.25H20.2255C20.4548 16.8986 20.8581 17.4716 21.3913 17.9064C21.9245 18.3411 22.567 18.6208 23.2485 18.7148C23.9299 18.8088 24.6242 18.7136 25.2551 18.4395C25.8861 18.1654 26.4296 17.723 26.8259 17.1608C27.2223 16.5985 27.4564 15.938 27.5026 15.2516C27.5488 14.5652 27.4052 13.8794 27.0877 13.2691C26.7701 12.6588 26.2909 12.1477 25.7023 11.7915C25.1137 11.4354 24.4384 11.2481 23.7505 11.25ZM23.7505 16.25C23.5033 16.25 23.2616 16.1767 23.056 16.0394C22.8505 15.902 22.6903 15.7068 22.5957 15.4784C22.501 15.25 22.4763 14.9986 22.5245 14.7562C22.5728 14.5137 22.6918 14.2909 22.8666 14.1161C23.0414 13.9413 23.2642 13.8223 23.5066 13.774C23.7491 13.7258 24.0005 13.7506 24.2289 13.8452C24.4573 13.9398 24.6525 14.1 24.7898 14.3056C24.9272 14.5111 25.0005 14.7528 25.0005 15C25.0005 15.3315 24.8688 15.6495 24.6344 15.8839C24.4 16.1183 24.082 16.25 23.7505 16.25Z" fill="#F0F0F0"/>
<path d="M3.75049 8.74989H5.22549C5.48825 9.47383 5.96753 10.0993 6.5982 10.5413C7.22887 10.9834 7.98035 11.2205 8.7505 11.2205C9.52065 11.2205 10.2721 10.9834 10.9028 10.5413C11.5335 10.0993 12.0127 9.47383 12.2755 8.74989H26.2505C26.5821 8.74989 26.9 8.6182 27.1344 8.38378C27.3688 8.14936 27.5005 7.83141 27.5005 7.49989C27.5005 7.16837 27.3688 6.85043 27.1344 6.61601C26.9 6.38159 26.5821 6.24989 26.2505 6.24989H12.2755C12.0127 5.52595 11.5335 4.90047 10.9028 4.45844C10.2721 4.01642 9.52065 3.7793 8.7505 3.7793C7.98035 3.7793 7.22887 4.01642 6.5982 4.45844C5.96753 4.90047 5.48825 5.52595 5.22549 6.24989H3.75049C3.41897 6.24989 3.10103 6.38159 2.86661 6.61601C2.63218 6.85043 2.50049 7.16837 2.50049 7.49989C2.50049 7.83141 2.63218 8.14936 2.86661 8.38378C3.10103 8.6182 3.41897 8.74989 3.75049 8.74989ZM8.7505 6.24989C8.99773 6.24989 9.2394 6.3232 9.44496 6.46056C9.65052 6.59791 9.81074 6.79313 9.90535 7.02154C9.99996 7.24995 10.0247 7.50128 9.97648 7.74376C9.92825 7.98623 9.8092 8.20896 9.63438 8.38378C9.45957 8.55859 9.23684 8.67764 8.99436 8.72588C8.75189 8.77411 8.50055 8.74935 8.27214 8.65474C8.04374 8.56013 7.84851 8.39992 7.71116 8.19436C7.57381 7.98879 7.5005 7.74712 7.5005 7.49989C7.5005 7.16837 7.63219 6.85043 7.86661 6.61601C8.10104 6.38159 8.41898 6.24989 8.7505 6.24989Z" fill="#F0F0F0"/>
<path d="M26.2505 21.2499H17.2755C17.0128 20.526 16.5335 19.9005 15.9028 19.4584C15.2721 19.0164 14.5207 18.7793 13.7505 18.7793C12.9804 18.7793 12.2289 19.0164 11.5982 19.4584C10.9675 19.9005 10.4883 20.526 10.2255 21.2499H3.75049C3.41897 21.2499 3.10103 21.3816 2.86661 21.616C2.63218 21.8504 2.50049 22.1684 2.50049 22.4999C2.50049 22.8314 2.63218 23.1494 2.86661 23.3838C3.10103 23.6182 3.41897 23.7499 3.75049 23.7499H10.2255C10.4883 24.4738 10.9675 25.0993 11.5982 25.5413C12.2289 25.9834 12.9804 26.2205 13.7505 26.2205C14.5207 26.2205 15.2721 25.9834 15.9028 25.5413C16.5335 25.0993 17.0128 24.4738 17.2755 23.7499H26.2505C26.5821 23.7499 26.9 23.6182 27.1344 23.3838C27.3688 23.1494 27.5005 22.8314 27.5005 22.4999C27.5005 22.1684 27.3688 21.8504 27.1344 21.616C26.9 21.3816 26.5821 21.2499 26.2505 21.2499ZM13.7505 23.7499C13.5033 23.7499 13.2616 23.6766 13.056 23.5392C12.8505 23.4019 12.6903 23.2067 12.5957 22.9782C12.501 22.7498 12.4763 22.4985 12.5245 22.256C12.5728 22.0136 12.6918 21.7908 12.8666 21.616C13.0414 21.4412 13.2642 21.3221 13.5066 21.2739C13.7491 21.2257 14.0005 21.2504 14.2289 21.345C14.4573 21.4397 14.6525 21.5999 14.7898 21.8054C14.9272 22.011 15.0005 22.2527 15.0005 22.4999C15.0005 22.8314 14.8688 23.1494 14.6344 23.3838C14.4 23.6182 14.082 23.7499 13.7505 23.7499Z" fill="#F0F0F0"/>
</svg>
