<svg width="30" height="26" viewBox="0 0 30 26" fill="none" xmlns="http://www.w3.org/2000/svg">
<path d="M1.13367 25.8694C0.912202 25.7931 0.720063 25.6496 0.584059 25.4589C0.448055 25.2682 0.37497 25.0398 0.375 24.8056C0.375 19.6657 1.40719 15.5553 3.44414 12.5874C5.90508 9.00142 9.78703 7.07064 15 6.83088V1.18057C15 0.960278 15.0647 0.744842 15.1861 0.560986C15.3074 0.377129 15.48 0.232941 15.6826 0.14631C15.8851 0.0596791 16.1086 0.0344169 16.3254 0.0736572C16.5422 0.112898 16.7426 0.214914 16.902 0.36705L29.277 12.1795C29.3869 12.2846 29.4745 12.4108 29.5343 12.5507C29.5941 12.6905 29.6249 12.841 29.6249 12.9931C29.6249 13.1451 29.5941 13.2956 29.5343 13.4355C29.4745 13.5753 29.3869 13.7015 29.277 13.8066L16.902 25.6191C16.7426 25.7712 16.5422 25.8732 16.3254 25.9125C16.1086 25.9517 15.8851 25.9265 15.6826 25.8398C15.48 25.7532 15.3074 25.609 15.1861 25.4251C15.0647 25.2413 15 25.0259 15 24.8056V19.1967C11.8359 19.2924 9.44531 19.8049 7.54195 20.7886C5.48531 21.8517 3.99398 23.4401 2.38664 25.4995C2.24245 25.6842 2.04421 25.8192 1.81959 25.8858C1.59497 25.9523 1.35518 25.9471 1.13367 25.8708V25.8694Z" fill="white"/>
</svg>
