<svg width="35" height="35" viewBox="0 0 35 35" fill="none" xmlns="http://www.w3.org/2000/svg">
<path d="M17.5002 20.7791C19.3124 20.7791 20.7814 19.31 20.7814 17.4978C20.7814 15.6856 19.3124 14.2166 17.5002 14.2166C15.688 14.2166 14.2189 15.6856 14.2189 17.4978C14.2189 19.31 15.688 20.7791 17.5002 20.7791Z" fill="black"/>
<path d="M28.4377 20.7791C30.2499 20.7791 31.7189 19.31 31.7189 17.4978C31.7189 15.6856 30.2499 14.2166 28.4377 14.2166C26.6255 14.2166 25.1564 15.6856 25.1564 17.4978C25.1564 19.31 26.6255 20.7791 28.4377 20.7791Z" fill="black"/>
<path d="M6.56268 20.7791C8.37487 20.7791 9.84393 19.31 9.84393 17.4978C9.84393 15.6856 8.37487 14.2166 6.56268 14.2166C4.7505 14.2166 3.28143 15.6856 3.28143 17.4978C3.28143 19.31 4.7505 20.7791 6.56268 20.7791Z" fill="black"/>
</svg>
