<svg width="200" height="163" viewBox="0 0 200 163" fill="none" xmlns="http://www.w3.org/2000/svg">
<path d="M133.541 43.7411V31.7518L139.387 31.5215V26.8057H121.084V31.7517H127.159C127.159 31.7517 128.187 36.4873 127.159 42.155C124.525 56.6834 107.433 73.3521 89.0392 77.9728C79.2804 80.4242 71.8999 79.8542 71.8999 79.8542C70.4826 79.4764 69.0063 80.2033 68.4417 81.5551C67.8781 82.907 68.4024 84.4931 69.1646 86.3052C69.1646 86.3052 72.6058 95.9058 90.2028 97.8212C113.381 100.343 132.174 90.2404 138.635 67.84C142.623 54.0138 136.938 43.7411 133.541 43.7411ZM111.329 84.4042C102.73 89.1645 93.4729 91.1728 86.355 91.2435L86.3289 88.5645C92.9733 88.5095 101.878 86.5863 110.03 82.0613C118.193 77.5323 125.601 70.4563 129.535 60.0333L132.039 60.9773C127.851 72.0866 119.917 79.6475 111.329 84.4042Z" fill="#00EA33"/>
<path d="M125.336 35.5358V23.5465L131.181 23.3162V18.6003H112.879V23.5463H118.954C118.954 23.5463 119.982 28.282 118.954 33.9497C116.32 48.4781 99.2275 65.1468 80.8341 69.7675C71.0753 72.2189 63.6948 71.6489 63.6948 71.6489C62.2775 71.2711 60.8013 71.998 60.2366 73.3498C59.673 74.7017 60.1973 76.2878 60.9596 78.0999C60.9596 78.0999 64.4007 87.7005 81.9977 89.6159C105.176 92.1379 123.969 82.0351 130.43 59.6347C134.417 45.8085 128.733 35.5358 125.336 35.5358ZM103.124 76.1988C94.5245 80.9592 85.2679 82.9675 78.1499 83.0381L78.1239 80.3592C84.7682 80.3042 93.6733 78.381 101.825 73.856C109.988 69.327 117.396 62.251 121.33 51.828L123.834 52.772C119.646 63.8813 111.712 71.4422 103.124 76.1988Z" fill="#FBE416"/>
<path d="M129.438 39.6383V27.649L135.284 27.4188V22.7029H116.981V27.6489H123.057C123.057 27.6489 124.084 32.3845 123.057 38.0522C120.422 52.5806 103.33 69.2493 84.9367 73.87C75.1779 76.3214 67.7973 75.7514 67.7973 75.7514C66.3801 75.3736 64.9038 76.1006 64.3391 77.4523C63.7756 78.8042 64.2999 80.3903 65.0621 82.2024C65.0621 82.2024 68.5032 91.803 86.1002 93.7185C109.279 96.2404 128.072 86.1377 134.532 63.7373C138.52 49.911 132.835 39.6383 129.438 39.6383ZM107.226 80.3014C98.627 85.0617 89.3704 87.07 82.2525 87.1407L82.2264 84.4617C88.8708 84.4067 97.7759 82.4836 105.928 77.9585C114.09 73.4296 121.498 66.3536 125.432 55.9306L127.936 56.8745C123.748 67.9838 115.815 75.5447 107.226 80.3014Z" fill="white"/>
<path d="M39.0762 120.168H44.123L53.2949 136.246V120.168H57.7793V143.199H52.9668L43.5605 126.84V143.199H39.0762V120.168ZM66.3574 126.168V136.434C66.3574 137.402 66.472 138.132 66.7012 138.621C67.1074 139.486 67.9043 139.918 69.0918 139.918C70.6126 139.918 71.6543 139.303 72.2168 138.074C72.5085 137.408 72.6543 136.527 72.6543 135.434V126.168H77.1699V143.199H72.8418V140.793C72.8001 140.845 72.696 141.001 72.5293 141.262C72.3626 141.522 72.1647 141.751 71.9355 141.949C71.2376 142.574 70.5605 143.001 69.9043 143.23C69.2585 143.46 68.498 143.574 67.623 143.574C65.1022 143.574 63.4043 142.668 62.5293 140.855C62.0397 139.855 61.7949 138.382 61.7949 136.434V126.168H66.3574ZM81.4355 120.246H85.8105V132.652L91.3574 126.246H96.873L90.9199 132.762L97.1074 143.199H91.7324L87.6543 135.918L85.8105 137.84V143.199H81.4355V120.246ZM105.143 120.168H110.189L119.361 136.246V120.168H123.846V143.199H119.033L109.627 126.84V143.199H105.143V120.168ZM132.424 126.168V136.434C132.424 137.402 132.538 138.132 132.768 138.621C133.174 139.486 133.971 139.918 135.158 139.918C136.679 139.918 137.721 139.303 138.283 138.074C138.575 137.408 138.721 136.527 138.721 135.434V126.168H143.236V143.199H138.908V140.793C138.867 140.845 138.762 141.001 138.596 141.262C138.429 141.522 138.231 141.751 138.002 141.949C137.304 142.574 136.627 143.001 135.971 143.23C135.325 143.46 134.564 143.574 133.689 143.574C131.169 143.574 129.471 142.668 128.596 140.855C128.106 139.855 127.861 138.382 127.861 136.434V126.168H132.424ZM147.502 120.246H151.877V132.652L157.424 126.246H162.939L156.986 132.762L163.174 143.199H157.799L153.721 135.918L151.877 137.84V143.199H147.502V120.246Z" fill="white"/>
</svg>
