<svg width="120" height="120" viewBox="0 0 120 120" fill="none" xmlns="http://www.w3.org/2000/svg">
<path d="M110.311 38.0118V20.0278L119.08 19.6825V12.6086H91.6256V20.0276H100.739C100.739 20.0276 102.281 27.1311 100.739 35.6327C96.7872 57.4252 71.1489 82.4283 43.5589 89.3593C28.9207 93.0364 17.8499 92.1814 17.8499 92.1814C15.724 91.6148 13.5096 92.7052 12.6625 94.7328C11.8172 96.7607 12.6036 99.1398 13.747 101.858C13.747 101.858 18.9087 116.259 45.3042 119.132C80.072 122.915 108.262 107.761 117.952 74.1602C123.934 53.4208 115.407 38.0118 110.311 38.0118ZM76.9931 99.0064C64.0944 106.147 50.2095 109.159 39.5326 109.265L39.4935 105.247C49.46 105.164 62.8177 102.28 75.0456 95.4921C87.2893 88.6987 98.4013 78.0847 104.303 62.4502L108.058 63.8661C101.777 80.5301 89.876 91.8714 76.9931 99.0064Z" fill="#00EA33"/>
<path d="M98.0037 25.7039V7.71998L106.772 7.3746V0.300781H79.3179V7.71977H88.4313C88.4313 7.71977 89.9729 14.8232 88.4313 23.3248C84.4795 45.1174 58.8412 70.1205 31.2512 77.0515C16.613 80.7286 5.54216 79.8736 5.54216 79.8736C3.41629 79.3069 1.20187 80.3973 0.354846 82.4249C-0.490496 84.4528 0.295952 86.8319 1.43934 89.5501C1.43934 89.5501 6.601 103.951 32.9965 106.824C67.7643 110.607 95.954 95.453 105.644 61.8524C111.626 41.113 103.099 25.7039 98.0037 25.7039ZM64.6854 86.6986C51.7867 93.8391 37.9018 96.8515 27.2249 96.9575L27.1858 92.939C37.1524 92.8566 50.51 89.9718 62.7379 83.1843C74.9816 76.3908 86.0936 65.7768 91.9948 50.1423L95.7506 51.5583C89.4689 68.2222 77.5683 79.5635 64.6854 86.6986Z" fill="#FBE416"/>
<path d="M104.158 31.8576V13.8737L112.926 13.5283V6.45447H85.4717V13.8735H94.5852C94.5852 13.8735 96.1267 20.9769 94.5852 29.4785C90.6334 51.2711 64.9951 76.2742 37.405 83.2052C22.7669 86.8823 11.696 86.0273 11.696 86.0273C9.57016 85.4606 7.35574 86.551 6.50872 88.5786C5.66337 90.6065 6.44982 92.9856 7.59321 95.7038C7.59321 95.7038 12.7549 110.105 39.1504 112.978C73.9182 116.761 102.108 101.607 111.798 68.006C117.78 47.2667 109.253 31.8576 104.158 31.8576ZM70.8393 92.8522C57.9406 99.9927 44.0557 103.005 33.3788 103.111L33.3396 99.0927C43.3062 99.0103 56.6639 96.1255 68.8918 89.3379C81.1354 82.5445 92.2475 71.9305 98.1487 56.296L101.904 57.712C95.6228 74.3759 83.7222 85.7172 70.8393 92.8522Z" fill="white"/>
</svg>
